<?xml version="1.0" encoding="UTF-8"?>
<svg width="20px" height="20px" viewBox="0 0 50 50" version="1.1" xmlns="http://www.w3.org/2000/svg" xmlns:xlink="http://www.w3.org/1999/xlink">
  <g id="icon-gear" stroke="none" stroke-width="1" fill="none" fill-rule="evenodd">
    <path style="fill:#484848" d="m24.04 0.14285c-1.376 0-2.7263 0.12375-4.0386 0.34741l-0.64 6.7853c-1.3572 0.37831-2.6417 0.90728-3.8432 1.585l-5.244-4.3317c-2.2152 1.5679-4.1541 3.4955-5.7217 5.7101l4.3426 5.2437c-0.67695 1.2001-1.2177 2.4878-1.5959 3.8432l-6.7745 0.64053c-0.22379 1.3127-0.34741 2.6622-0.34741 4.0386 0 1.3788 0.12285 2.7238 0.34741 4.0386l6.7745 0.64056c0.37825 1.3554 0.91896 2.6431 1.5959 3.8432l-4.3317 5.2437c1.5648 2.2089 3.4908 4.1457 5.6997 5.7105l5.2545-4.3426c1.2023 0.67835 2.485 1.2174 3.8432 1.5959l0.64053 6.7853c1.3123 0.22368 2.6626 0.33658 4.0386 0.33658s2.7155-0.11289 4.0278-0.33658l0.64053-6.7853c1.3582-0.37847 2.6409-0.91755 3.8432-1.5959l5.2545 4.3426c2.2088-1.5649 4.1348-3.5017 5.6997-5.7105l-4.3317-5.2437c0.67695-1.2001 1.2177-2.4878 1.5959-3.8432l6.7744-0.64056c0.22456-1.3148 0.34741-2.6598 0.34741-4.0386 0-1.3765-0.12361-2.726-0.34741-4.0386l-6.7744-0.64053c-0.37825-1.3554-0.91896-2.6431-1.5959-3.8432l4.3426-5.2437c-1.568-2.2146-3.507-4.1422-5.722-5.7101l-5.2437 4.3317c-1.2015-0.67776-2.486-1.2067-3.8432-1.585l-0.641-6.7853c-1.3123-0.22366-2.6518-0.34741-4.0278-0.34741zm0 14.776c5.0178 0 9.076 4.0691 9.076 9.0869s-4.0582 9.0869-9.076 9.0869-9.0869-4.0691-9.0869-9.0869 4.0691-9.0869 9.0869-9.0869z" />
  </g>
</svg>
