<?xml version="1.0" encoding="UTF-8" standalone="no"?>
<svg
   width = "20px"
   height = "20px"
   xmlns:dc="http://purl.org/dc/elements/1.1/"
   xmlns:cc="http://creativecommons.org/ns#"
   xmlns:rdf="http://www.w3.org/1999/02/22-rdf-syntax-ns#"
   xmlns:svg="http://www.w3.org/2000/svg"
   xmlns="http://www.w3.org/2000/svg"
   xmlns:sodipodi="http://sodipodi.sourceforge.net/DTD/sodipodi-0.dtd"
   xmlns:inkscape="http://www.inkscape.org/namespaces/inkscape"
   viewBox="0 0 64 64"
   version="1.1"
   id="svg7"
   sodipodi:docname="user-icon.svg"
   inkscape:version="0.92.3 (2405546, 2018-03-11)">
  <metadata
     id="metadata13">
    <rdf:RDF>
      <cc:Work
         rdf:about="">
        <dc:format>image/svg+xml</dc:format>
        <dc:type
           rdf:resource="http://purl.org/dc/dcmitype/StillImage" />
        <dc:title></dc:title>
      </cc:Work>
    </rdf:RDF>
  </metadata>
  <defs
     id="defs11" />
  <sodipodi:namedview
     pagecolor="#ffffff"
     bordercolor="#666666"
     borderopacity="1"
     objecttolerance="10"
     gridtolerance="10"
     guidetolerance="10"
     inkscape:pageopacity="0"
     inkscape:pageshadow="2"
     inkscape:window-width="722"
     inkscape:window-height="480"
     id="namedview9"
     showgrid="false"
     inkscape:zoom="3.6875"
     inkscape:cx="32"
     inkscape:cy="32"
     inkscape:window-x="0"
     inkscape:window-y="30"
     inkscape:window-maximized="0"
     inkscape:current-layer="svg7" />
  <g
     id="User"
     style="fill:#b497e7;fill-opacity:1">
    <path
       d="M41.2452,33.0349a16,16,0,1,0-18.49,0A26.0412,26.0412,0,0,0,4,58a2,2,0,0,0,2,2H58a2,2,0,0,0,2-2A26.0412,26.0412,0,0,0,41.2452,33.0349ZM20,20A12,12,0,1,1,32,32,12.0137,12.0137,0,0,1,20,20ZM8.09,56A22.0293,22.0293,0,0,1,30,36h4A22.0293,22.0293,0,0,1,55.91,56Z"
       id="path4"
       style="fill:#b497e7;fill-opacity:1" />
  </g>
</svg>
